<svg width="30" height="20" viewBox="0 0 30 20" fill="none" xmlns="http://www.w3.org/2000/svg">
<path d="M2.33334 19.5C1.88473 19.5 1.50895 19.348 1.20601 19.044C0.903061 18.74 0.751061 18.3642 0.750005 17.9167C0.74895 17.4691 0.90095 17.0933 1.20601 16.7893C1.51106 16.4853 1.88684 16.3333 2.33334 16.3333H27.6667C28.1153 16.3333 28.4916 16.4853 28.7956 16.7893C29.0996 17.0933 29.2511 17.4691 29.25 17.9167C29.2489 18.3642 29.0969 18.7405 28.794 19.0456C28.4911 19.3506 28.1153 19.5021 27.6667 19.5H2.33334ZM2.33334 11.5833C1.88473 11.5833 1.50895 11.4313 1.20601 11.1273C0.903061 10.8233 0.751061 10.4476 0.750005 10C0.74895 9.55244 0.90095 9.17667 1.20601 8.87267C1.51106 8.56867 1.88684 8.41667 2.33334 8.41667H27.6667C28.1153 8.41667 28.4916 8.56867 28.7956 8.87267C29.0996 9.17667 29.2511 9.55244 29.25 10C29.2489 10.4476 29.0969 10.8239 28.794 11.1289C28.4911 11.434 28.1153 11.5854 27.6667 11.5833H2.33334ZM2.33334 3.66667C1.88473 3.66667 1.50895 3.51467 1.20601 3.21067C0.903061 2.90667 0.751061 2.53089 0.750005 2.08333C0.74895 1.63578 0.90095 1.26 1.20601 0.956C1.51106 0.652 1.88684 0.5 2.33334 0.5H27.6667C28.1153 0.5 28.4916 0.652 28.7956 0.956C29.0996 1.26 29.2511 1.63578 29.25 2.08333C29.2489 2.53089 29.0969 2.90719 28.794 3.21225C28.4911 3.5173 28.1153 3.66878 27.6667 3.66667H2.33334Z" fill="#1D4ED8"/>
</svg>
