<svg width="1669" height="1546" viewBox="0 0 1669 1546" fill="none" xmlns="http://www.w3.org/2000/svg">
<g opacity="0.16" filter="url(#filter0_f_45_2778)">
<path d="M624.378 501.282C590.906 506.358 575.246 525.288 569.511 547.769C558.175 592.207 548.952 641.532 520.919 677.827C508.787 693.534 500 710.206 500 725.215C500 770.651 602.045 828.707 577.307 968.981C552.57 1109.25 1152.47 1025.96 1167.58 968.981C1182.7 912.006 1073.79 767.045 982.049 836.28C890.312 905.515 909.552 526.885 891.686 557.897C873.82 588.908 714.741 487.579 624.378 501.282Z" fill="url(#paint0_linear_45_2778)"/>
</g>
<defs>
<filter id="filter0_f_45_2778" x="0" y="0" width="1669" height="1546" filterUnits="userSpaceOnUse" color-interpolation-filters="sRGB">
<feFlood flood-opacity="0" result="BackgroundImageFix"/>
<feBlend mode="normal" in="SourceGraphic" in2="BackgroundImageFix" result="shape"/>
<feGaussianBlur stdDeviation="250" result="effect1_foregroundBlur_45_2778"/>
</filter>
<linearGradient id="paint0_linear_45_2778" x1="514.373" y1="1027.8" x2="1244.49" y2="699.99" gradientUnits="userSpaceOnUse">
<stop stop-color="#2563EB"/>
<stop offset="0.979167" stop-color="#1D4ED8"/>
</linearGradient>
</defs>
</svg>
