<svg width="20" height="21" viewBox="0 0 20 21" fill="none" xmlns="http://www.w3.org/2000/svg">
<path d="M8.58519 7.67157H12.8278M12.8278 7.67157V11.9142M12.8278 7.67157L7.17098 13.3284M16.3634 4.13604C17.1991 4.97177 17.862 5.96392 18.3143 7.05585C18.7666 8.14778 18.9994 9.3181 18.9994 10.5C18.9994 11.6819 18.7666 12.8522 18.3143 13.9442C17.862 15.0361 17.1991 16.0282 16.3634 16.864C15.5276 17.6997 14.5355 18.3626 13.4436 18.8149C12.3516 19.2672 11.1813 19.5 9.99941 19.5C8.81751 19.5 7.64719 19.2672 6.55526 18.8149C5.46333 18.3626 4.47117 17.6997 3.63545 16.864C1.94762 15.1761 0.999406 12.8869 0.999406 10.5C0.999406 8.11305 1.94762 5.82387 3.63545 4.13604C5.32327 2.44821 7.61246 1.5 9.99941 1.5C12.3864 1.5 14.6755 2.44821 16.3634 4.13604Z" stroke="black" stroke-width="2" stroke-linecap="round" stroke-linejoin="round"/>
</svg>
