<svg width="44" height="44" viewBox="0 0 44 44" fill="none" xmlns="http://www.w3.org/2000/svg">
<rect width="44" height="44" rx="8" transform="matrix(1 0 0 -1 0 44)" fill="#1D4ED8"/>
<path d="M34.4392 20.7484L24.8767 11.1859C24.7281 11.0372 24.5387 10.9358 24.3325 10.8948C24.1263 10.8537 23.9125 10.8747 23.7183 10.9552C23.524 11.0357 23.358 11.172 23.2413 11.3469C23.1246 11.5218 23.0623 11.7274 23.0625 11.9376V20.4376H10.3125C10.0307 20.4376 9.76046 20.5496 9.5612 20.7488C9.36194 20.9481 9.25 21.2183 9.25 21.5001C9.25 21.7819 9.36194 22.0522 9.5612 22.2514C9.76046 22.4507 10.0307 22.5626 10.3125 22.5626H23.0625V31.0626C23.0623 31.2729 23.1246 31.4785 23.2413 31.6534C23.358 31.8283 23.524 31.9646 23.7183 32.0451C23.9125 32.1255 24.1263 32.1466 24.3325 32.1055C24.5387 32.0644 24.7281 31.9631 24.8767 31.8144L34.4392 22.2519C34.538 22.1532 34.6164 22.036 34.6698 21.907C34.7233 21.778 34.7508 21.6398 34.7508 21.5001C34.7508 21.3605 34.7233 21.2223 34.6698 21.0933C34.6164 20.9643 34.538 20.8471 34.4392 20.7484Z" fill="white"/>
</svg>
