<svg width="44" height="44" viewBox="0 0 44 44" fill="none" xmlns="http://www.w3.org/2000/svg">
<rect x="44" y="44" width="44" height="44" rx="8" transform="rotate(180 44 44)" fill="#1D4ED8"/>
<path d="M9.56078 20.7484L19.1233 11.1859C19.2719 11.0372 19.4613 10.9358 19.6675 10.8948C19.8737 10.8537 20.0875 10.8747 20.2817 10.9552C20.476 11.0357 20.642 11.172 20.7587 11.3469C20.8754 11.5218 20.9377 11.7274 20.9375 11.9376V20.4376H33.6875C33.9693 20.4376 34.2395 20.5496 34.4388 20.7488C34.6381 20.9481 34.75 21.2183 34.75 21.5001C34.75 21.7819 34.6381 22.0522 34.4388 22.2514C34.2395 22.4507 33.9693 22.5626 33.6875 22.5626H20.9375V31.0626C20.9377 31.2729 20.8754 31.4785 20.7587 31.6534C20.642 31.8283 20.476 31.9646 20.2817 32.0451C20.0875 32.1255 19.8737 32.1466 19.6675 32.1055C19.4613 32.0644 19.2719 31.9631 19.1233 31.8144L9.56078 22.2519C9.46199 22.1532 9.38362 22.036 9.33015 21.907C9.27669 21.778 9.24916 21.6398 9.24916 21.5001C9.24916 21.3605 9.27669 21.2223 9.33015 21.0933C9.38362 20.9643 9.46199 20.8471 9.56078 20.7484Z" fill="white"/>
</svg>
