<svg width="54" height="54" viewBox="0 0 54 54" fill="none" xmlns="http://www.w3.org/2000/svg">
<path d="M29.5312 38.8125V20.25C29.534 17.5655 30.6017 14.9918 32.4999 13.0936C34.3981 11.1954 36.9718 10.1278 39.6562 10.125C40.1038 10.125 40.533 10.3028 40.8495 10.6193C41.166 10.9357 41.3438 11.3649 41.3438 11.8125C41.3438 12.2601 41.166 12.6893 40.8495 13.0057C40.533 13.3222 40.1038 13.5 39.6562 13.5C37.866 13.5 36.1491 14.2112 34.8833 15.477C33.6174 16.7429 32.9062 18.4598 32.9062 20.25V21.9375H45.5625C46.4576 21.9375 47.3161 22.2931 47.949 22.926C48.5819 23.559 48.9375 24.4174 48.9375 25.3125V38.8125C48.9375 39.7076 48.5819 40.5661 47.949 41.199C47.3161 41.8319 46.4576 42.1875 45.5625 42.1875H32.9062C32.0111 42.1875 31.1527 41.8319 30.5198 41.199C29.8868 40.5661 29.5312 39.7076 29.5312 38.8125ZM8.4375 42.1875H21.0938C21.9889 42.1875 22.8473 41.8319 23.4802 41.199C24.1132 40.5661 24.4688 39.7076 24.4688 38.8125V25.3125C24.4688 24.4174 24.1132 23.559 23.4802 22.926C22.8473 22.2931 21.9889 21.9375 21.0938 21.9375H8.4375V20.25C8.4375 18.4598 9.14866 16.7429 10.4145 15.477C11.6804 14.2112 13.3973 13.5 15.1875 13.5C15.6351 13.5 16.0643 13.3222 16.3807 13.0057C16.6972 12.6893 16.875 12.2601 16.875 11.8125C16.875 11.3649 16.6972 10.9357 16.3807 10.6193C16.0643 10.3028 15.6351 10.125 15.1875 10.125C12.503 10.1278 9.92933 11.1954 8.03113 13.0936C6.13293 14.9918 5.06529 17.5655 5.0625 20.25V38.8125C5.0625 39.7076 5.41808 40.5661 6.05101 41.199C6.68395 41.8319 7.54239 42.1875 8.4375 42.1875Z" fill="#2563EB"/>
</svg>
