<svg width="1440" height="1053" viewBox="0 0 1440 1053" fill="none" xmlns="http://www.w3.org/2000/svg">
<rect width="1440" height="1053" fill="url(#paint0_linear_285_2515)"/>
<g clip-path="url(#clip0_285_2515)">
<g opacity="0.1">
<line x1="773.024" y1="6.10533e-05" x2="671.377" y2="1578" stroke="url(#paint1_linear_285_2515)" stroke-opacity="0.6"/>
<line x1="30.4951" y1="962.484" x2="1419.67" y2="962.484" stroke="white"/>
<line x1="30.4946" y1="822.484" x2="1419.67" y2="822.484" stroke="white"/>
<line x1="867.896" y1="6.10533e-05" x2="766.248" y2="1578" stroke="url(#paint2_linear_285_2515)" stroke-opacity="0.6"/>
<line x1="30.4946" y1="665.9" x2="1419.67" y2="665.9" stroke="white"/>
<line x1="962.765" y1="6.10533e-05" x2="861.117" y2="1578" stroke="url(#paint3_linear_285_2515)" stroke-opacity="0.6"/>
<line x1="30.4951" y1="509.315" x2="1419.67" y2="509.315" stroke="white"/>
<line x1="30.4951" y1="349.314" x2="1419.67" y2="349.314" stroke="white"/>
<line x1="30.4951" y1="189.314" x2="1419.67" y2="189.314" stroke="white"/>
<line x1="30.4951" y1="29.3145" x2="1419.67" y2="29.3145" stroke="white"/>
<line x1="1057.63" y1="1.81765e-08" x2="955.988" y2="1578" stroke="url(#paint4_linear_285_2515)" stroke-opacity="0.6"/>
<line x1="393.536" y1="6.10533e-05" x2="291.889" y2="1578" stroke="url(#paint5_linear_285_2515)" stroke-opacity="0.6"/>
<line x1="488.407" y1="6.10533e-05" x2="386.76" y2="1578" stroke="url(#paint6_linear_285_2515)" stroke-opacity="0.6"/>
<line x1="583.284" y1="6.10533e-05" x2="481.637" y2="1578" stroke="url(#paint7_linear_285_2515)" stroke-opacity="0.6"/>
<line x1="678.153" y1="6.1052e-05" x2="576.506" y2="1578" stroke="url(#paint8_linear_285_2515)" stroke-opacity="0.6"/>
<line x1="1155.89" y1="1.81765e-08" x2="1054.25" y2="1578" stroke="url(#paint9_linear_285_2515)" stroke-opacity="0.6"/>
<line x1="102.147" y1="6.10533e-05" x2="0.500329" y2="1578" stroke="url(#paint10_linear_285_2515)" stroke-opacity="0.6"/>
<line x1="1250.76" y1="1.81765e-08" x2="1149.12" y2="1578" stroke="url(#paint11_linear_285_2515)" stroke-opacity="0.6"/>
<line x1="197.016" y1="6.10533e-05" x2="95.369" y2="1578" stroke="url(#paint12_linear_285_2515)" stroke-opacity="0.6"/>
<line x1="1345.63" y1="1.81765e-08" x2="1243.99" y2="1578" stroke="url(#paint13_linear_285_2515)" stroke-opacity="0.6"/>
<line x1="291.887" y1="6.10533e-05" x2="190.24" y2="1578" stroke="url(#paint14_linear_285_2515)" stroke-opacity="0.6"/>
</g>
</g>
<defs>
<linearGradient id="paint0_linear_285_2515" x1="720" y1="0" x2="720" y2="1053" gradientUnits="userSpaceOnUse">
<stop stop-color="#1D4ED8"/>
<stop offset="0.478886" stop-color="#558DE2"/>
<stop offset="0.570947" stop-color="#558DE2"/>
<stop offset="1" stop-color="#2769D7"/>
</linearGradient>
<linearGradient id="paint1_linear_285_2515" x1="721.701" y1="5.91876e-05" x2="721.701" y2="1578" gradientUnits="userSpaceOnUse">
<stop stop-color="white"/>
<stop offset="0.5" stop-color="white"/>
<stop offset="1" stop-color="white"/>
</linearGradient>
<linearGradient id="paint2_linear_285_2515" x1="816.572" y1="5.91876e-05" x2="816.572" y2="1578" gradientUnits="userSpaceOnUse">
<stop stop-color="white"/>
<stop offset="0.5" stop-color="white"/>
<stop offset="1" stop-color="white"/>
</linearGradient>
<linearGradient id="paint3_linear_285_2515" x1="911.441" y1="5.91876e-05" x2="911.441" y2="1578" gradientUnits="userSpaceOnUse">
<stop stop-color="white"/>
<stop offset="0.5" stop-color="white"/>
<stop offset="1" stop-color="white"/>
</linearGradient>
<linearGradient id="paint4_linear_285_2515" x1="1006.31" y1="-1.84759e-06" x2="1006.31" y2="1578" gradientUnits="userSpaceOnUse">
<stop stop-color="white"/>
<stop offset="0.5" stop-color="white"/>
<stop offset="1" stop-color="white"/>
</linearGradient>
<linearGradient id="paint5_linear_285_2515" x1="342.212" y1="5.91876e-05" x2="342.212" y2="1578" gradientUnits="userSpaceOnUse">
<stop stop-color="white"/>
<stop offset="0.5" stop-color="white"/>
<stop offset="1" stop-color="white"/>
</linearGradient>
<linearGradient id="paint6_linear_285_2515" x1="437.083" y1="5.91876e-05" x2="437.083" y2="1578" gradientUnits="userSpaceOnUse">
<stop stop-color="white"/>
<stop offset="0.5" stop-color="white"/>
<stop offset="1" stop-color="white"/>
</linearGradient>
<linearGradient id="paint7_linear_285_2515" x1="531.961" y1="5.91876e-05" x2="531.961" y2="1578" gradientUnits="userSpaceOnUse">
<stop stop-color="white"/>
<stop offset="0.5" stop-color="white"/>
<stop offset="1" stop-color="white"/>
</linearGradient>
<linearGradient id="paint8_linear_285_2515" x1="626.83" y1="5.93182e-05" x2="626.83" y2="1578" gradientUnits="userSpaceOnUse">
<stop stop-color="white"/>
<stop offset="0.5" stop-color="white"/>
<stop offset="1" stop-color="white"/>
</linearGradient>
<linearGradient id="paint9_linear_285_2515" x1="1104.57" y1="-1.84759e-06" x2="1104.57" y2="1578" gradientUnits="userSpaceOnUse">
<stop stop-color="white"/>
<stop offset="0.5" stop-color="white"/>
<stop offset="1" stop-color="white"/>
</linearGradient>
<linearGradient id="paint10_linear_285_2515" x1="50.8239" y1="5.91876e-05" x2="50.8239" y2="1578" gradientUnits="userSpaceOnUse">
<stop stop-color="white"/>
<stop offset="0.5" stop-color="white"/>
<stop offset="1" stop-color="white"/>
</linearGradient>
<linearGradient id="paint11_linear_285_2515" x1="1199.44" y1="-1.84759e-06" x2="1199.44" y2="1578" gradientUnits="userSpaceOnUse">
<stop stop-color="white"/>
<stop offset="0.5" stop-color="white"/>
<stop offset="1" stop-color="white"/>
</linearGradient>
<linearGradient id="paint12_linear_285_2515" x1="145.693" y1="5.91876e-05" x2="145.693" y2="1578" gradientUnits="userSpaceOnUse">
<stop stop-color="white"/>
<stop offset="0.5" stop-color="white"/>
<stop offset="1" stop-color="white"/>
</linearGradient>
<linearGradient id="paint13_linear_285_2515" x1="1294.31" y1="-1.84759e-06" x2="1294.31" y2="1578" gradientUnits="userSpaceOnUse">
<stop stop-color="white"/>
<stop offset="0.5" stop-color="white"/>
<stop offset="1" stop-color="white"/>
</linearGradient>
<linearGradient id="paint14_linear_285_2515" x1="240.564" y1="5.91876e-05" x2="240.564" y2="1578" gradientUnits="userSpaceOnUse">
<stop stop-color="white"/>
<stop offset="0.5" stop-color="white"/>
<stop offset="1" stop-color="white"/>
</linearGradient>
<clipPath id="clip0_285_2515">
<rect width="1440" height="1051" fill="white"/>
</clipPath>
</defs>
</svg>
