<svg width="28" height="28" viewBox="0 0 28 28" fill="none" xmlns="http://www.w3.org/2000/svg">
<g clip-path="url(#clip0_251_1666)">
<path d="M7.29196 22.7499C5.42412 22.7499 3.76279 21.5541 3.15962 19.7738L3.11879 19.6396C2.97646 19.1683 2.91696 18.7716 2.91696 18.3749V10.4206L0.0866232 19.8683C-0.277377 21.2578 0.552123 22.6986 1.94396 23.0824L19.9841 27.9136C20.2093 27.9719 20.4345 27.9999 20.6561 27.9999C21.8181 27.9999 22.8798 27.2288 23.1773 26.0924L24.2285 22.7499H7.29196Z" fill="#1E3A8A"/>
<path d="M10.5003 10.4999C11.7872 10.4999 12.8337 9.45342 12.8337 8.16659C12.8337 6.87975 11.7872 5.83325 10.5003 5.83325C9.21349 5.83325 8.16699 6.87975 8.16699 8.16659C8.16699 9.45342 9.21349 10.4999 10.5003 10.4999Z" fill="#1E3A8A"/>
<path d="M25.0837 2.33325H7.58366C5.97599 2.33325 4.66699 3.64225 4.66699 5.24992V18.0833C4.66699 19.6909 5.97599 20.9999 7.58366 20.9999H25.0837C26.6913 20.9999 28.0003 19.6909 28.0003 18.0833V5.24992C28.0003 3.64225 26.6913 2.33325 25.0837 2.33325ZM7.58366 4.66659H25.0837C25.4057 4.66659 25.667 4.92792 25.667 5.24992V13.5321L21.9815 9.23175C21.5907 8.77325 21.0248 8.52825 20.417 8.51425C19.8127 8.51775 19.2457 8.78609 18.8583 9.25042L14.5253 14.4514L13.1137 13.0433C12.3157 12.2453 11.0172 12.2453 10.2203 13.0433L7.00033 16.2621V5.24992C7.00033 4.92792 7.26166 4.66659 7.58366 4.66659Z" fill="#1E3A8A"/>
</g>
<defs>
<clipPath id="clip0_251_1666">
<rect width="28" height="28" fill="white"/>
</clipPath>
</defs>
</svg>
