<svg width="28" height="28" viewBox="0 0 28 28" fill="none" xmlns="http://www.w3.org/2000/svg">
<path d="M27.7789 10.8147C27.6278 10.5418 27.4061 10.3145 27.137 10.1565C26.868 9.99858 26.5614 9.91577 26.2495 9.91676H9.6675C9.10843 9.91674 8.56444 10.098 8.11718 10.4335C7.66993 10.7689 7.34353 11.2404 7.18699 11.7771L3.90487 23.0301C3.73208 23.6225 3.37181 24.1428 2.87815 24.5131C2.38449 24.8833 1.78406 25.0834 1.16699 25.0834H22.0199C22.6371 25.0834 23.2376 24.8832 23.7314 24.5129C24.2251 24.1426 24.5855 23.6221 24.7583 23.0296L27.9091 12.2273C27.9824 11.995 28.0086 11.7504 27.9863 11.5079C27.9639 11.2654 27.8935 11.0297 27.7789 10.8147Z" fill="#1E3A8A"/>
<path d="M2.7825 22.7034L6.06667 11.4509C6.29546 10.673 6.76944 9.98983 7.418 9.50315C8.06655 9.01647 8.85498 8.75233 9.66583 8.75008H24.5V8.16675C24.5 7.54791 24.2542 6.95442 23.8166 6.51683C23.379 6.07925 22.7855 5.83341 22.1667 5.83341H13.2742C13.1003 5.83341 12.9287 5.79467 12.7717 5.72C12.6147 5.64533 12.4764 5.53661 12.3667 5.40175L11.22 3.99177C10.9468 3.65592 10.6023 3.38517 10.2113 3.19921C9.82038 3.01325 9.39291 2.91676 8.96 2.91675H2.33333C1.71449 2.91675 1.121 3.16258 0.683418 3.60017C0.245833 4.03775 0 4.63124 0 5.25008L0 22.7501C0 23.0595 0.122916 23.3562 0.341709 23.575C0.560501 23.7938 0.857247 23.9167 1.16667 23.9167C1.53081 23.9158 1.88489 23.7971 2.17608 23.5784C2.46727 23.3598 2.67999 23.0528 2.7825 22.7034Z" fill="#1E3A8A"/>
</svg>
