<svg width="28" height="28" viewBox="0 0 28 28" fill="none" xmlns="http://www.w3.org/2000/svg">
<path d="M20.6171 14.2377C20.5845 14.1284 20.5348 14.0322 20.4679 13.9491C20.4011 13.866 20.3179 13.7992 20.2185 13.7486C20.119 13.6981 20.0025 13.6727 19.8688 13.6727C19.7318 13.6727 19.6137 13.6989 19.5142 13.751C19.4147 13.8032 19.3324 13.8726 19.2672 13.9589C19.2019 14.0453 19.1539 14.1432 19.123 14.2523C19.0919 14.3616 19.0764 14.4733 19.0764 14.5874C19.0764 14.7047 19.0927 14.818 19.1254 14.9273C19.1578 15.0365 19.2068 15.1334 19.272 15.2182C19.3373 15.3031 19.4195 15.3715 19.5191 15.4237C19.6185 15.4759 19.7367 15.502 19.8737 15.502C20.0106 15.502 20.1296 15.4751 20.2307 15.4213C20.3317 15.3675 20.414 15.2974 20.4777 15.211C20.5413 15.1247 20.5885 15.026 20.6195 14.9151C20.6504 14.8042 20.666 14.6918 20.666 14.5776C20.666 14.4602 20.6496 14.347 20.6171 14.2377Z" fill="#1E3A8A"/>
<path d="M15.7854 9.48728C15.7267 9.42373 15.6681 9.39185 15.6093 9.39185H15.0322V10.1353H15.6337C15.6925 10.1353 15.747 10.1027 15.7976 10.0375C15.8481 9.9723 15.8735 9.88092 15.8735 9.76361C15.8735 9.64303 15.8442 9.55093 15.7854 9.48728Z" fill="#1E3A8A"/>
<path d="M12.5817 9.95188C12.549 9.84267 12.4992 9.74648 12.4325 9.66335C12.3656 9.58023 12.2825 9.5134 12.1831 9.46281C12.0836 9.41234 11.967 9.38696 11.8334 9.38696C11.6964 9.38696 11.5783 9.4131 11.4788 9.46522C11.3793 9.51739 11.297 9.58679 11.2318 9.67314C11.1665 9.75955 11.1185 9.85739 11.0876 9.96654C11.0565 10.0758 11.041 10.1875 11.041 10.3016C11.041 10.419 11.0573 10.5323 11.09 10.6415C11.1224 10.7508 11.1713 10.8477 11.2366 10.9325C11.3018 11.0174 11.3841 11.0858 11.4836 11.138C11.583 11.1902 11.7012 11.2163 11.8382 11.2163C11.9752 11.2163 12.0942 11.1894 12.1953 11.1355C12.2963 11.0818 12.3786 11.0117 12.4423 10.9253C12.5058 10.839 12.553 10.7403 12.5841 10.6294C12.615 10.5186 12.6306 10.4061 12.6306 10.2919C12.6306 10.1744 12.6142 10.0612 12.5817 9.95188Z" fill="#1E3A8A"/>
<path d="M26.0551 5.46875e-05L1.94434 0V25.6666H4.27752V28L5.44417 27.2222L6.61082 28V25.6666H26.0553L26.0551 5.46875e-05ZM17.1542 8.56045H17.1543H20.1083V9.39181H19.1106V12.0328H18.1569V9.39181H17.1542V8.56045ZM14.078 8.56045H14.078H15.6724C15.8419 8.56045 15.9984 8.59551 16.1419 8.66562C16.2854 8.73578 16.4085 8.827 16.5112 8.93949C16.6138 9.05198 16.6945 9.18094 16.7532 9.32591C16.812 9.47106 16.8413 9.61685 16.8413 9.76363C16.8413 9.96587 16.7973 10.1542 16.7092 10.3286C16.6212 10.503 16.4989 10.6456 16.3424 10.7565L17.076 12.0329H16.0001L15.3887 10.9667H15.0317V12.0329H14.078V8.56045ZM9.52484 13.6776H8.09679V14.2547H9.26081V15.0275H8.09679V16.3187H7.14309V12.8462H9.5249V13.6776H9.52484ZM9.49307 10.5976C9.39359 10.7101 9.27306 10.7998 9.13115 10.8665C8.98934 10.9333 8.83365 10.9668 8.66412 10.9668H8.09679V12.0329H7.14309V8.56045H8.63962C8.80915 8.56045 8.96561 8.59551 9.10916 8.66562C9.25261 8.73578 9.37571 8.827 9.47836 8.93949C9.58101 9.05198 9.66178 9.18094 9.72041 9.32591C9.77914 9.47106 9.80845 9.61685 9.80845 9.76363C9.80845 9.91692 9.78078 10.0661 9.72538 10.2111C9.66982 10.3562 9.59244 10.485 9.49307 10.5976ZM13.1292 15.2548C13.0412 15.4651 12.9189 15.651 12.7625 15.8124C12.606 15.9738 12.4193 16.1033 12.2025 16.2012C11.9856 16.299 11.7484 16.3479 11.491 16.3479C11.2268 16.3479 10.9871 16.2974 10.772 16.1963C10.5568 16.0953 10.3725 15.9624 10.2194 15.7977C10.0661 15.6331 9.94709 15.4448 9.86237 15.2328C9.7775 15.0209 9.73523 14.8024 9.73523 14.5774C9.73523 14.3492 9.7792 14.1291 9.86724 13.9172C9.95529 13.7054 10.0783 13.5187 10.2365 13.3573C10.3946 13.1959 10.5821 13.0671 10.7989 12.9708C11.0157 12.8747 11.253 12.8266 11.5105 12.8266C11.7746 12.8266 12.0143 12.8771 12.2294 12.9782C12.4447 13.0793 12.6288 13.2129 12.7821 13.3792C12.9353 13.5455 13.0534 13.7345 13.1367 13.9465C13.2198 14.1585 13.2614 14.3753 13.2614 14.597C13.2613 14.8253 13.2173 15.0445 13.1292 15.2548ZM13.4667 10.9691C13.3786 11.1794 13.2563 11.3653 13.0999 11.5266C12.9434 11.688 12.7567 11.8176 12.5399 11.9155C12.323 12.0133 12.0858 12.0621 11.8283 12.0621C11.5643 12.0621 11.3245 12.0116 11.1093 11.9106C10.8941 11.8095 10.7098 11.6767 10.5567 11.5119C10.4034 11.3474 10.2844 11.159 10.1997 10.947C10.1148 10.7352 10.0725 10.5167 10.0725 10.2916C10.0726 10.0635 10.1166 9.84342 10.2046 9.63145C10.2927 9.41948 10.4157 9.23284 10.5739 9.07145C10.732 8.91007 10.9194 8.78134 11.1363 8.68503C11.3531 8.58889 11.5903 8.54082 11.8479 8.54082C12.1119 8.54082 12.3516 8.59135 12.5668 8.69241C12.7821 8.79353 12.9662 8.92713 13.1195 9.09344C13.2727 9.25974 13.3908 9.4488 13.474 9.66077C13.5571 9.87279 13.5988 10.0896 13.5988 10.3112C13.5987 10.5396 13.5547 10.7588 13.4667 10.9691ZM16.2691 16.3186H13.7406V12.8463H14.6943V15.4873H16.2691V16.3186ZM17.6288 16.3186H16.6751V12.8463H17.6288V16.3186ZM21.5021 15.2549C21.4141 15.4652 21.2918 15.6511 21.1353 15.8125C20.9789 15.9738 20.7922 16.1034 20.5753 16.2013C20.3585 16.2991 20.1213 16.348 19.8638 16.348C19.5998 16.348 19.3601 16.2975 19.1449 16.1964C18.9297 16.0954 18.7454 15.9625 18.5923 15.7977C18.439 15.6332 18.32 15.4448 18.2352 15.2328C18.1504 15.021 18.1081 14.8025 18.1081 14.5774C18.1081 14.3492 18.1521 14.1291 18.2401 13.9173C18.3282 13.7053 18.4512 13.5186 18.6094 13.3573C18.7675 13.1959 18.9549 13.0671 19.1718 12.9708C19.3886 12.8747 19.6258 12.8266 19.8834 12.8266C20.1475 12.8266 20.3871 12.8771 20.6023 12.9782C20.8176 13.0793 21.0017 13.213 21.1551 13.3792C21.3083 13.5455 21.4264 13.7346 21.5097 13.9466C21.5927 14.1585 21.6344 14.3754 21.6344 14.597C21.6342 14.8254 21.5902 15.0445 21.5021 15.2549Z" fill="#1E3A8A"/>
<path d="M8.75205 9.47016C8.69332 9.41799 8.63469 9.39185 8.57596 9.39185H8.09668V10.1353H8.60046C8.65909 10.1353 8.71361 10.1084 8.76425 10.0546C8.81473 10.0008 8.8401 9.90378 8.8401 9.76367C8.8401 9.62022 8.81073 9.52239 8.75205 9.47016Z" fill="#1E3A8A"/>
<path d="M12.2448 14.2378C12.2122 14.1286 12.1625 14.0324 12.0956 13.9492C12.0287 13.8661 11.9456 13.7993 11.8462 13.7487C11.7467 13.6982 11.6302 13.6729 11.4965 13.6729C11.3595 13.6729 11.2414 13.699 11.1419 13.7511C11.0425 13.8033 10.9601 13.8727 10.8949 13.959C10.8297 14.0454 10.7816 14.1433 10.7506 14.2524C10.7196 14.3617 10.7041 14.4734 10.7041 14.5875C10.7041 14.7049 10.7203 14.8182 10.753 14.9274C10.7855 15.0366 10.8345 15.1336 10.8997 15.2184C10.965 15.3033 11.0472 15.3717 11.1467 15.4239C11.2462 15.4761 11.3643 15.5021 11.5013 15.5021C11.6383 15.5021 11.7573 15.4752 11.8584 15.4214C11.9594 15.3677 12.0417 15.2976 12.1054 15.2112C12.169 15.1249 12.2162 15.0262 12.2472 14.9152C12.2781 14.8044 12.2937 14.692 12.2937 14.5778C12.2937 14.4603 12.2773 14.3471 12.2448 14.2378Z" fill="#1E3A8A"/>
</svg>
