<svg width="44" height="44" viewBox="0 0 44 44" fill="none" xmlns="http://www.w3.org/2000/svg">
<g clip-path="url(#clip0_330_1836)">
<path d="M10.7168 40.37L11.6244 39.9024L12.8011 42.1865L11.8935 42.654L10.7168 40.37Z" fill="white"/>
<path d="M3.3877 42.1726L4.5644 39.8886L5.47196 40.3561L4.29526 42.6402L3.3877 42.1726Z" fill="white"/>
<path d="M7.56934 43.9589L7.63357 41.3896L8.65445 41.4152L8.59022 43.9844L7.56934 43.9589Z" fill="white"/>
<path d="M32.3369 1.81921L33.2445 1.35165L34.4212 3.63569L33.5136 4.10325L32.3369 1.81921Z" fill="white"/>
<path d="M39.6748 3.62952L40.8515 1.34548L41.7591 1.81304L40.5824 4.09708L39.6748 3.62952Z" fill="white"/>
<path d="M36.4971 2.5603L36.5613 -0.00891716L37.5822 0.0166049L37.518 2.58582L36.4971 2.5603Z" fill="white"/>
<path d="M39.5507 36.8284C39.6187 36.8284 39.6868 36.8113 39.7464 36.7688L39.7123 34.1996L28.2529 34.2081L28.287 36.8539C28.3465 36.8964 28.4146 36.9134 28.4911 36.9134L39.5507 36.8284Z" fill="white"/>
<path d="M27.2148 37.9768L27.2999 43.6002H40.9372L40.8521 37.8662L27.2148 37.9768Z" fill="white"/>
<path d="M40.7335 24.0418L39.2362 19.3713C39.1511 19.2267 38.9895 19.1416 38.8193 19.1416C38.4365 19.1416 38.0707 19.3373 37.8495 19.652C37.5432 20.188 37.4326 20.8175 37.5262 21.4301C37.6538 22.2128 37.9771 24.2035 38.1302 25.1223C38.1813 25.4115 38.2068 25.5902 38.2068 25.5987L38.2749 25.9985L37.9005 26.1517C37.6113 26.2878 37.3476 26.4579 37.1009 26.6536C36.7606 26.9258 36.4798 27.2491 36.2586 27.6234C36.0459 27.9978 35.8418 28.3891 35.6546 28.7889L34.7273 28.3551C34.8719 28.0488 35.0251 27.7425 35.1867 27.4533L27.8193 30.5329C27.8704 31.4943 28.2532 32.4046 28.9168 33.1022C28.9423 33.1277 28.9678 33.1617 29.0019 33.1872L39.1511 33.1787C39.1852 33.1277 39.2192 33.0681 39.2532 33.0171C39.551 32.5577 39.8062 32.1408 39.8062 32.1323L39.8147 32.1153C39.8998 31.9792 39.9678 31.8346 40.0104 31.6814L41.4481 26.3388L41.0227 25.0032L40.7335 24.0418Z" fill="white"/>
<path d="M42.6725 22.051L36.0368 6.17625L29.8094 8.7795C29.4181 8.94114 28.9587 8.75398 28.797 8.36264C28.746 8.23503 28.729 8.09041 28.746 7.95429C28.8225 7.43534 28.9502 6.15073 28.5588 5.40209C27.8527 4.08345 26.2108 3.59002 24.8922 4.29613C23.5735 5.00224 23.0801 6.64416 23.7862 7.9628C24.1265 8.59234 24.6965 9.06024 25.3771 9.27293C25.6663 9.358 25.862 9.61322 25.879 9.91098C25.896 10.2087 25.7174 10.4895 25.4451 10.6086L18.7158 13.382C18.8094 13.4926 18.886 13.6117 18.9455 13.7478C19.2433 14.4114 19.6516 15.3302 20.077 16.2745C20.3067 16.7679 20.5364 17.2783 20.7406 17.7633C20.9618 18.2567 21.1659 18.7161 21.3446 19.1074C22.2889 17.2783 24.5348 16.5637 26.3639 17.508C27.9378 18.3247 28.729 20.1368 28.2355 21.8383V21.8468C28.2355 21.8638 28.227 21.8808 28.227 21.8978C28.1335 22.2636 27.9888 22.6124 27.7932 22.9442C27.7591 23.0038 27.7251 23.0548 27.6826 23.1144C27.3423 23.6078 26.8914 24.0162 26.3639 24.2969C25.6323 24.6797 24.6625 24.7308 23.8287 24.6627L26.1002 29.7331C26.1598 29.8607 26.1938 29.9883 26.2193 30.1159L26.8063 29.8692L27.8187 29.4438L36.5898 25.7772C36.7684 25.6411 36.9556 25.5135 37.1512 25.4029C37.0066 24.5436 36.6578 22.4168 36.5302 21.5916C36.4026 20.7408 36.5557 19.8731 36.9896 19.1244L36.9981 19.1074C37.415 18.4779 38.1211 18.1121 38.8697 18.1291C39.4142 18.1376 39.9161 18.4524 40.1628 18.9373L40.1799 18.9798L41.6772 23.6503L42.094 23.4802C42.647 23.242 42.9022 22.6039 42.6725 22.051Z" fill="white"/>
<path d="M16.9551 6.83986L16.8785 1.01233H3.24121L3.31778 6.95046L16.9551 6.83986Z" fill="white"/>
<path d="M4.6195 7.98844C4.55144 7.98844 4.48338 8.00545 4.42383 8.04799L4.45786 10.6172V10.7193C4.51741 10.7618 4.58547 10.7874 4.66203 10.7788L15.6961 10.6938L15.7046 10.7108H15.7216C15.7896 10.7108 15.8577 10.6938 15.9173 10.6512L15.8747 7.96291C15.8152 7.92038 15.7471 7.89486 15.6705 7.90336L4.6195 7.98844Z" fill="white"/>
<path d="M22.6467 24.5097C22.5361 24.263 22.5616 23.9737 22.7233 23.7525C22.7233 23.744 22.7318 23.744 22.7318 23.7355C22.8934 23.5143 23.1741 23.3952 23.4464 23.4292C23.9653 23.4888 25.2499 23.5909 25.9901 23.174C26.5941 22.8337 27.045 22.2722 27.2407 21.6087C27.5299 20.3751 26.9174 19.1075 25.7689 18.5545C24.4247 17.908 22.8083 18.478 22.1618 19.8221C22.1022 19.9412 22.0512 20.0688 22.0171 20.1964C21.898 20.5708 21.5067 20.7835 21.1239 20.6644C20.9197 20.6048 20.7581 20.4517 20.673 20.256C20.4603 19.7541 20.137 18.9714 19.7797 18.1207C19.7797 18.1207 19.7797 18.1121 19.7712 18.1121C19.1587 16.7425 18.4441 15.1516 18.0017 14.1477C17.9506 14.0371 17.8656 13.9521 17.755 13.9095C17.7039 13.8925 17.6529 13.8755 17.5933 13.8755C17.5338 13.8755 17.4657 13.8925 17.4147 13.918L17.3211 13.9606L16.3257 14.4029L8.68613 17.8229C8.26076 18.478 7.69077 19.0224 7.01018 19.4053C7.15481 20.2645 7.50361 22.3913 7.63122 23.2166C7.76734 24.0673 7.6057 24.935 7.17182 25.6837L7.16331 25.7007C6.76347 26.3047 6.09139 26.6705 5.36826 26.6876C5.34274 26.6876 5.31722 26.6876 5.28319 26.6876C4.73872 26.679 4.23679 26.3643 3.99007 25.8794L3.97306 25.8368L2.32263 20.6729L1.87174 20.877C1.32727 21.1237 1.08056 21.7703 1.32727 22.3148L8.47345 38.2831L14.2414 35.6968C13.5353 35.1524 12.7611 34.4037 12.4804 33.5615C11.8253 31.6133 12.8717 29.495 14.8199 28.8399C16.7681 28.1848 18.8864 29.2313 19.5415 31.1794C19.7712 31.86 19.7967 32.5917 19.6181 33.2893C21.0728 32.6342 23.4379 31.5793 24.8416 30.9497C25.1564 30.8051 25.301 30.4393 25.1564 30.1245L22.6467 24.5097Z" fill="white"/>
<path d="M3.27577 20.2645L4.9347 25.4455C5.01977 25.5901 5.18141 25.6752 5.35156 25.6752C5.73439 25.6752 6.1002 25.4795 6.31289 25.1648C6.61915 24.6288 6.72975 23.9992 6.62766 23.3867C6.46602 22.3573 5.94707 19.2521 5.94707 19.2181L5.92155 19.082L5.87901 18.8183L6.25334 18.6651C6.26184 18.6651 7.30825 18.2143 7.88675 17.1934C7.91227 17.1423 7.93779 17.0998 7.97182 17.0487L9.35001 16.4362L16.1729 13.3821C15.9942 12.761 15.671 12.191 15.2286 11.7231L4.89216 11.8082C4.5944 12.2676 4.33918 12.6845 4.33918 12.693L4.33068 12.71C4.2456 12.8461 4.17754 12.9907 4.13501 13.1439L2.69727 18.4865L2.96099 19.3032L3.27577 20.2645Z" fill="white"/>
</g>
<defs>
<clipPath id="clip0_330_1836">
<rect width="44" height="44" fill="white"/>
</clipPath>
</defs>
</svg>
