<svg width="44" height="44" viewBox="0 0 44 44" fill="none" xmlns="http://www.w3.org/2000/svg">
<path d="M32.9616 29.4439C33.3087 26.9779 33.481 24.4904 33.4772 22C33.481 19.5096 33.3087 17.0221 32.9616 14.5561H42.7112C44.4342 19.3691 44.4342 24.6309 42.7112 29.4439H32.9616ZM22.0003 44C19.8518 44 17.6587 41.7948 15.9769 37.9509C15.2086 36.1952 14.583 34.1937 14.1146 32.0212H29.8859C29.4175 34.1928 28.7919 36.1943 28.0236 37.9509C26.3418 41.7948 24.1487 44 22.0003 44ZM13.6437 29.4439C12.9195 24.5077 12.9195 19.4923 13.6437 14.5561H30.3568C30.723 17.0204 30.9046 19.5086 30.9 22C30.9046 24.4914 30.723 26.9796 30.3568 29.4439H13.6437ZM1.28933 29.4439C-0.433684 24.6309 -0.433684 19.3691 1.28933 14.5561H11.0389C10.3503 19.4948 10.3503 24.5052 11.0389 29.4439H1.28933ZM22.0003 0C24.1487 0 26.3418 2.2043 28.0236 6.04914C28.7919 7.80484 29.4175 9.80633 29.8859 11.9788H14.1146C14.583 9.80719 15.2086 7.8057 15.9769 6.04914C17.6587 2.2043 19.8518 0 22.0003 0ZM41.594 11.978H32.5173C32.0017 9.42563 31.285 7.07008 30.386 5.01703C29.6582 3.35156 28.8332 1.94133 27.93 0.805234C30.8587 1.61629 33.5863 3.02866 35.9389 4.95231C38.2915 6.87597 40.2174 9.2687 41.594 11.978ZM16.0706 0.804375C15.17 1.94133 14.3458 3.3507 13.6171 5.01531C12.7182 7.07008 12.0023 9.42562 11.4858 11.9762H2.40652C3.78342 9.26729 5.70951 6.87486 8.06207 4.95138C10.4146 3.02791 13.1421 1.61557 16.0706 0.804375ZM2.40652 32.022H11.4832C11.9989 34.5744 12.7156 36.9299 13.6145 38.983C14.3432 40.6476 15.1674 42.057 16.068 43.1939C13.1398 42.3826 10.4128 40.9702 8.06067 39.0468C5.70855 37.1233 3.78292 34.7309 2.40652 32.022ZM27.93 43.1939C28.8306 42.057 29.6556 40.6476 30.3835 38.983C31.2824 36.9282 31.9982 34.5727 32.5147 32.022H41.594C40.2174 34.7314 38.2915 37.1242 35.9389 39.048C33.5863 40.9718 30.8587 42.3844 27.93 43.1956V43.1939Z" fill="white"/>
</svg>
