<svg width="42" height="42" viewBox="0 0 42 42" fill="none" xmlns="http://www.w3.org/2000/svg">
<path d="M33.833 0.833252H8.16634C7.72703 0.83831 7.30415 1.00096 6.97467 1.29159C8.28209 1.75157 9.43239 2.57264 10.2923 3.65964C11.1521 4.74664 11.6863 6.05506 11.833 7.43325C11.861 7.67689 11.861 7.92294 11.833 8.16659V39.3333C11.8321 39.6839 11.9319 40.0275 12.1203 40.3232C12.3088 40.6189 12.5781 40.8543 12.8963 41.0016C13.2153 41.1484 13.5698 41.2006 13.9175 41.1518C14.2653 41.1031 14.5917 40.9555 14.858 40.7266L20.083 36.2533L25.308 40.7266C25.6401 41.0106 26.0627 41.1667 26.4997 41.1667C26.9367 41.1667 27.3593 41.0106 27.6913 40.7266L32.9163 36.2533L38.1413 40.7266C38.4734 41.0106 38.896 41.1666 39.333 41.1666C39.5982 41.1647 39.8603 41.1086 40.103 41.0016C40.4212 40.8543 40.6906 40.6189 40.879 40.3232C41.0675 40.0275 41.1672 39.6839 41.1663 39.3333V8.16659C41.1663 6.22166 40.3937 4.3564 39.0185 2.98114C37.6432 1.60587 35.7779 0.833252 33.833 0.833252ZM31.9997 26.4999H20.9997C20.5134 26.4999 20.0471 26.3068 19.7033 25.9629C19.3595 25.6191 19.1663 25.1528 19.1663 24.6666C19.1663 24.1804 19.3595 23.714 19.7033 23.3702C20.0471 23.0264 20.5134 22.8333 20.9997 22.8333H31.9997C32.4859 22.8333 32.9522 23.0264 33.296 23.3702C33.6399 23.714 33.833 24.1804 33.833 24.6666C33.833 25.1528 33.6399 25.6191 33.296 25.9629C32.9522 26.3068 32.4859 26.4999 31.9997 26.4999ZM31.9997 19.1666H20.9997C20.5134 19.1666 20.0471 18.9734 19.7033 18.6296C19.3595 18.2858 19.1663 17.8195 19.1663 17.3333C19.1663 16.847 19.3595 16.3807 19.7033 16.0369C20.0471 15.6931 20.5134 15.4999 20.9997 15.4999H31.9997C32.4859 15.4999 32.9522 15.6931 33.296 16.0369C33.6399 16.3807 33.833 16.847 33.833 17.3333C33.833 17.8195 33.6399 18.2858 33.296 18.6296C32.9522 18.9734 32.4859 19.1666 31.9997 19.1666ZM31.9997 11.8333H20.9997C20.5134 11.8333 20.0471 11.6401 19.7033 11.2963C19.3595 10.9525 19.1663 10.4861 19.1663 9.99992C19.1663 9.51369 19.3595 9.04737 19.7033 8.70356C20.0471 8.35974 20.5134 8.16659 20.9997 8.16659H31.9997C32.4859 8.16659 32.9522 8.35974 33.296 8.70356C33.6399 9.04737 33.833 9.51369 33.833 9.99992C33.833 10.4861 33.6399 10.9525 33.296 11.2963C32.9522 11.6401 32.4859 11.8333 31.9997 11.8333ZM8.16634 8.16659V22.8333H2.66634C2.18011 22.8333 1.7138 22.6401 1.36998 22.2963C1.02616 21.9525 0.833008 21.4861 0.833008 20.9999V8.16659C0.833008 7.90992 0.833008 7.67159 0.833008 7.43325C0.930254 6.46079 1.40983 5.56679 2.16622 4.94792C2.92262 4.32905 3.89388 4.03601 4.86634 4.13325C5.8388 4.2305 6.7328 4.71007 7.35167 5.46647C7.97054 6.22286 8.26359 7.19412 8.16634 8.16659Z" fill="white"/>
</svg>
